<svg xmlns="http://www.w3.org/2000/svg" viewBox="0 0 876.17 463.45"><title>Clooney Foundation for Justice</title><path d="M16,134,51,450l143-8s23-320,17-320S16,134,16,134Z" style="fill:#f3e0b5"/><path d="M84.33,240.37s15.34-2.81,17.18-7c0,0-19.32,5.29-38.78,6.1l17.85.12,1.82,7s3.84.44,9.3,1.48v-3L85,243.79Z" style="fill:#9f0900"/><path d="M228,118.57,4.82,132.31,0,463.45l244-15.32Zm-89.23,8.29c3.33,3,6.39,13.26,6.39,13.26h-55ZM54.18,293.61,44,267.75l-12.46-31.6s16.64-68.91,45.3-94.62l79.28,1.7-8.86,69.61L139,215.66l8.57-50.29-64.18-6.06,59.7,8.47-10.32,62.67L121.31,233l5.88-32.77-51.82-9.94,48.81,13.86L113.1,249l-18.31-3.4a76.58,76.58,0,0,1,.76-8.3l-3.61,2c-.12,2-.18,3.85-.21,5.69v3c.45,66.49,56.07,56.1,56.07,56.1l2.5,4.46L91.94,330.38V325.9l-3.61,1v4.78l-1.66.62-.8-4.84-1.72.82v5l-1.55.58V320.92H79V335.2l-11.89,4.43ZM68,342.71l11-4.18v2.84l3.61-1V337.2l1.55-.59v2.31l3.44-1-.4-2.43,1.15-.44v11.37H92v-12.8L151.6,311l14,25.09-12.57,2,.4-6.6-3.67.82-.38,6.37-1.46.24-.65-6.2-1.77.72-.36,5.93-1.57.25.82-13.66-3.61-.22L140,340.27,70.43,351.55Zm3.35,12,68.47-11.52-.18,3.07,3.67-.82.17-2.87,1.57-.26L144.9,344l3.5-.82-.16-1.5,1-.17-.61,10.19,3.61.22.66-11,14.1-2.35,15.44,27.61-10,5.19-1.94-5.75-3.09,2.14,1.78,5.29-1.43.74-2.51-4.72-1.37,1.33,1.55,4.6-1.39.72-4-11.83L156.62,365l4.16,12.36-49.72,25.76-1.64-4.86-3.09,2.14,1.48,4.41-1.57.81-2.08-3.9L102.79,403l1.25,3.71-1.39.72L99,396.57l-3.42,1.15,3.87,11.48L88.22,415Zm24.52,87.47-6.54-23.33,11.35-6,1.44,4.27,3.09-2.14-1.29-3.84,1.39-.73.91,2.69,2.93-2.07L108,409l1-.53,3.51,10.41,3.42-1.15-3.69-11,49.61-26.09,1.28,3.8,3.09-2.14-1.13-3.36,1.39-.73.75,2.22,2.93-2.07-.87-1.63.94-.49,3.35,9.94L177,385l-3.53-10.49L184,369l13,23.2ZM200,187.49a.61.61,0,0,1-.06.17l-1.32,3.59L166.2,279.47l-21,20.13c-45.3,5-50.73-31.61-50.51-50.92,7,1.46,15.71,3.77,22.63,7.16,1.88,1,18.19,10.72.9,35.08L128,277.54V257.85l-12.82-6.13,2.53-5.11s13.5,2.33,17.13,7.69c0,0-1.46-7-15.92-11.25l2.14-7.77,13.78-1.94,1.76-8.51S153.44,231,156.12,238c0,0-2.41-8.9-18.21-17.14l.27-3L150,215.66l6.16-50.56,4.83,2.4a58.15,58.15,0,0,0,8.29-.29c16,6.83,25.42.14,25.42.14-6.19,3.77-15.53,1.23-21-.86,13.88-3.07,15.7-11.83,15.7-11.83-8.3,15.8-33.21,7.23-33.21,7.23l3.21-21.77h-11c-.27-5.69,1.61-7.81,1.61-7.81l47.22,7.81C205.56,154.78,200.35,185.78,200,187.49Z" style="fill:#9f0900"/><path d="M111.11,91.33s31.77,6.48,34.1,41l6.49-5.82S149.88,94.6,117.17,87.1Z" style="fill:#9f0900"/><path d="M48.56,85.6a88.83,88.83,0,0,0-25.81,17.48c50.3,33.15,76.75,4.28,83.78-5.54C94.45,101.56,71,105.29,48.56,85.6Z" style="fill:#9f0900"/><path d="M77.57,76.93A59.92,59.92,0,0,1,62.81,52.74,87.16,87.16,0,0,0,30.89,54C36.66,66.25,43,75.12,49.58,81.48A67.63,67.63,0,0,1,77.57,76.93Z" style="fill:#9f0900"/><path d="M105.07,91.8A54.85,54.85,0,0,0,82.52,81.23c-10.9-2.21-21.23-.46-30.14,2.83C74.6,103.21,97.92,95,105,91.82h.07Z" style="fill:#9f0900"/><path d="M92,31.56A86.68,86.68,0,0,0,63.73,16.8c-1.06,13.2,0,23.88,2.41,32.54A66.24,66.24,0,0,1,92,60.62,59,59,0,0,1,92,31.56Z" style="fill:#9f0900"/><path d="M104.86,84.4A54.25,54.25,0,0,0,94.81,68.78C86.86,60.26,77,55.8,67.49,53.63c4.32,12.08,11.44,19.69,18.7,24.48a51,51,0,0,0,18.68,7.42l.51.09Z" style="fill:#9f0900"/><path d="M113.61,54.5a58.54,58.54,0,0,1,14.93-25.34A87.78,87.78,0,0,0,112.35,0C103.77,11.14,98.68,21.23,96,30.23A65.79,65.79,0,0,1,113.61,54.5Z" style="fill:#9f0900"/><path d="M111.95,63.08C109.56,50.61,102.77,41.17,95,34.16,92.1,47.22,94.35,57.84,98.2,66a52,52,0,0,0,11.35,15.44c.87.82,1.68,1.52,2.37,2.09q.32-1.82.52-3.58A54.82,54.82,0,0,0,111.95,63.08Z" style="fill:#9f0900"/><path d="M122,85.43c51.22-13.51,40.28-72.32,40.28-72.32-13.19,5.08-22.74,11.1-29.59,17.47C136.92,47,136.42,66.57,122,85.43Z" style="fill:#9f0900"/><path d="M129.75,33.5A47,47,0,0,0,116.55,64a51.34,51.34,0,0,0,1.39,14.15c.24,1,.5,1.94.75,2.77C132.29,64.75,133.21,47.73,129.75,33.5Z" style="fill:#9f0900"/><path d="M289.6,166c0-9.91,2.1-36.49,37.7-36.49,32,0,36.94,21.48,37.54,33a3.94,3.94,0,0,1-3.3,4.21l-16.67,3.75c-3.15.6-5.56-1.5-6-4.66-.75-6.61-3.45-10.51-11.56-10.51-11.11,0-11.87,7.06-11.87,18.62v21.63c0,11.56.75,18.62,11.87,18.62,8.26,0,10.51-3.9,11.41-10.81.45-3.15,2.85-5.11,5.86-4.36l17,3.75a4,4,0,0,1,3.3,4.35c-.6,11.41-5.56,32.89-37.54,32.89-35.59,0-37.7-26.58-37.7-36.49Z" style="fill:#f3e0b5"/><path d="M394.8,132.19q4.5,0,4.5,4.51V207c0,2.85,1.65,4.51,4.5,4.51h33.5q4.5,0,4.5,4.5v16.82q0,4.5-4.5,4.5H378c-2.85,0-4.51-1.65-4.51-4.5V136.69c0-3,1.65-4.51,4.51-4.51Z" style="fill:#f3e0b5"/><path d="M524.34,203.52c0,9.91-2.1,36.49-37.69,36.49S449,213.43,449,203.52V166c0-9.91,2.1-36.49,37.7-36.49s37.69,26.58,37.69,36.49Zm-25.83-29.58c0-11.56-.75-18.62-11.86-18.62s-11.87,7.06-11.87,18.62v21.63c0,11.56.75,18.62,11.87,18.62s11.86-7.06,11.86-18.62Z" style="fill:#f3e0b5"/><path d="M609.1,203.52c0,9.91-2.1,36.49-37.69,36.49s-37.69-26.58-37.69-36.49V166c0-9.91,2.1-36.49,37.69-36.49S609.1,156.07,609.1,166Zm-25.83-29.58c0-11.56-.75-18.62-11.86-18.62s-11.86,7.06-11.86,18.62v21.63c0,11.56.75,18.62,11.86,18.62s11.86-7.06,11.86-18.62Z" style="fill:#f3e0b5"/><path d="M646.25,132.19a5.19,5.19,0,0,1,5.26,3.45l20.42,50c.6,1.35,1.8,1.05,1.8-.45v-48.5c0-3,1.65-4.51,4.5-4.51H695q4.51,0,4.5,4.51V232.8c0,2.85-1.5,4.5-4.5,4.5H673a5.18,5.18,0,0,1-5.26-3.45l-20.42-50c-.6-1.35-1.8-1.05-1.8.45v48.51c0,2.85-1.5,4.5-4.51,4.5H624.17c-2.85,0-4.5-1.65-4.5-4.5V136.69c0-3,1.65-4.51,4.5-4.51Z" style="fill:#f3e0b5"/><path d="M779.13,132.19q4.5,0,4.5,4.51v16.82c0,2.85-1.5,4.51-4.5,4.51H742.79c-2.85,0-4.5,1.5-4.5,4.5v4.81c0,2.85,1.65,4.51,4.5,4.51h23.28q4.51,0,4.51,4.5v16.82c0,2.85-1.5,4.5-4.51,4.5H742.79c-2.85,0-4.5,1.5-4.5,4.5V207c0,2.85,1.65,4.51,4.5,4.51h36.34q4.5,0,4.5,4.5v16.82q0,4.5-4.5,4.5H716.06c-2.85,0-4.51-1.65-4.51-4.5V136.69c0-3,1.65-4.51,4.51-4.51Z" style="fill:#f3e0b5"/><path d="M816.12,132.19a4.89,4.89,0,0,1,5.11,3.45l11.11,27.93c.6,1.35,1.5,1.35,2.1,0l11.11-27.93a4.89,4.89,0,0,1,5.11-3.45h21.47c3.46,0,5,2.1,3.46,5.26l-26.88,60.07a3.82,3.82,0,0,0-.3,1.8v33.49c0,2.85-1.5,4.5-4.51,4.5h-21c-2.85,0-4.5-1.65-4.5-4.5V199.32a3.82,3.82,0,0,0-.3-1.8l-27-60.07c-1.5-3.15,0-5.26,3.45-5.26Z" style="fill:#f3e0b5"/><path d="M338.37,270.07q3.22,0,3.22,3.22v12a2.89,2.89,0,0,1-3.22,3.22H311.3a2.89,2.89,0,0,0-3.22,3.22v3.44a2.94,2.94,0,0,0,3.22,3.22H329q3.22,0,3.22,3.22v12A2.89,2.89,0,0,1,329,316.9H311.3a2.89,2.89,0,0,0-3.22,3.22V342a2.89,2.89,0,0,1-3.22,3.22H292.19A2.94,2.94,0,0,1,289,342V273.3a2.89,2.89,0,0,1,3.22-3.22Z" style="fill:#f3e0b5"/><path d="M400.51,321.09c0,7.09-1.5,26.1-27,26.1s-27-19-27-26.1V294.24c0-7.09,1.5-26.1,27-26.1s27,19,27,26.1ZM382,299.93c0-8.27-.54-13.32-8.48-13.32s-8.48,5-8.48,13.32v15.46c0,8.27.54,13.32,8.48,13.32s8.48-5,8.48-13.32Z" style="fill:#f3e0b5"/><path d="M422.8,270.07q3.22,0,3.22,3.22v42.1c0,8.27.54,13.32,8.48,13.32s8.48-5,8.48-13.32V273.3a2.89,2.89,0,0,1,3.22-3.22h12q3.22,0,3.22,3.22v47.79c0,7.09-1.5,26.1-27,26.1s-27-19-27-26.1V273.3a2.89,2.89,0,0,1,3.22-3.22Z" style="fill:#f3e0b5"/><path d="M488.55,270.07a3.71,3.71,0,0,1,3.76,2.47l14.6,35.76c.43,1,1.29.75,1.29-.32V273.3a2.89,2.89,0,0,1,3.22-3.22h12q3.22,0,3.22,3.22V342a2.89,2.89,0,0,1-3.22,3.22H507.66a3.71,3.71,0,0,1-3.76-2.47L489.3,307c-.43-1-1.29-.75-1.29.32V342a2.89,2.89,0,0,1-3.22,3.22h-12a2.94,2.94,0,0,1-3.22-3.22V273.3a2.89,2.89,0,0,1,3.22-3.22Z" style="fill:#f3e0b5"/><path d="M562.42,270.07c20.19,0,26.85,8.16,26.85,25.77v23.52c0,17.61-6.66,25.88-26.85,25.88h-24A2.94,2.94,0,0,1,535.2,342V273.4c0-2.15,1.07-3.22,3.22-3.33Zm.32,56.7c5.16,0,7.73-.86,7.73-7.3V295.85c0-6.66-2.58-7.3-7.73-7.3h-5.8a2.89,2.89,0,0,0-3.22,3.22v31.79a2.94,2.94,0,0,0,3.22,3.22Z" style="fill:#f3e0b5"/><path d="M649,341.6c0,2.36-1.07,3.65-3.22,3.65h-12a2.89,2.89,0,0,1-3.22-3.22v-9.34q0-3.22-3.22-3.22h-9.23a2.89,2.89,0,0,0-3.22,3.22V342q0,3.22-3.22,3.22h-12c-2,0-3.22-1.29-3.22-3.65V296.06c0-13.53,2.15-27.92,26.31-27.92S649,282.53,649,296.06Zm-18.47-45.53c0-5.16-.75-7.73-7.84-7.73s-7.84,2.58-7.84,7.73v11.71a2.94,2.94,0,0,0,3.22,3.22h9.23c2.15-.11,3.22-1.18,3.22-3.33Z" style="fill:#f3e0b5"/><path d="M675.72,291.77q0-3.22-3.22-3.22h-15a2.94,2.94,0,0,1-3.22-3.22v-12a2.89,2.89,0,0,1,3.22-3.22h55q3.22,0,3.22,3.22v12a2.89,2.89,0,0,1-3.22,3.22h-15a2.89,2.89,0,0,0-3.22,3.22V342a2.89,2.89,0,0,1-3.22,3.22h-12a2.94,2.94,0,0,1-3.22-3.22Z" style="fill:#f3e0b5"/><path d="M736.5,270.07q3.22,0,3.22,3.22V342a2.89,2.89,0,0,1-3.22,3.22H724.69a2.94,2.94,0,0,1-3.22-3.22V273.3a2.89,2.89,0,0,1,3.22-3.22Z" style="fill:#f3e0b5"/><path d="M801.08,321.09c0,7.09-1.5,26.1-27,26.1s-27-19-27-26.1V294.24c0-7.09,1.5-26.1,27-26.1s27,19,27,26.1Zm-18.47-21.16c0-8.27-.54-13.32-8.48-13.32s-8.48,5-8.48,13.32v15.46c0,8.27.54,13.32,8.48,13.32s8.48-5,8.48-13.32Z" style="fill:#f3e0b5"/><path d="M827.65,270.07a3.71,3.71,0,0,1,3.76,2.47L846,308.31c.43,1,1.29.75,1.29-.32V273.3a2.89,2.89,0,0,1,3.22-3.22h12q3.22,0,3.22,3.22V342a2.89,2.89,0,0,1-3.22,3.22H846.76a3.71,3.71,0,0,1-3.76-2.47L828.4,307c-.43-1-1.29-.75-1.29.32V342a2.89,2.89,0,0,1-3.22,3.22h-12a2.94,2.94,0,0,1-3.22-3.22V273.3a2.89,2.89,0,0,1,3.22-3.22Z" style="fill:#f3e0b5"/><path d="M336.13,381.09q3.09,0,3.09,3.09v11.54a2.77,2.77,0,0,1-3.09,3.09h-26A2.77,2.77,0,0,0,307,401.9v3.3a2.82,2.82,0,0,0,3.09,3.09h17q3.09,0,3.09,3.09V422.9a2.77,2.77,0,0,1-3.09,3.09h-17a2.77,2.77,0,0,0-3.09,3.09v21a2.77,2.77,0,0,1-3.09,3.09H291.84a2.82,2.82,0,0,1-3.09-3.09v-65.9a2.77,2.77,0,0,1,3.09-3.09Z" style="fill:#9f0900"/><path d="M395.73,430c0,6.8-1.44,25-25.85,25S344,436.81,344,430V404.26c0-6.8,1.44-25,25.85-25s25.85,18.23,25.85,25ZM378,409.72c0-7.93-.51-12.77-8.14-12.77s-8.14,4.84-8.14,12.77v14.83c0,7.93.51,12.77,8.14,12.77s8.14-4.84,8.14-12.77Z" style="fill:#9f0900"/><path d="M457.26,447.62a3.65,3.65,0,0,1-3.4,5.56H442.12a2.51,2.51,0,0,1-2.37-1.44L429,431a1.05,1.05,0,0,0-.82-.51H424.1a3.08,3.08,0,0,0-3.19,3V450a3.08,3.08,0,0,1-3,3.19H406.17a3.08,3.08,0,0,1-3.17-3h0V384.28a3.08,3.08,0,0,1,3-3.19h22.84c18.33,0,25.75,7.83,25.75,24.72,0,9.58-2.37,16.27-7.83,20.19a1.09,1.09,0,0,0-.31,1.34ZM424.1,398.8a3.08,3.08,0,0,0-3.2,3v7.94a3.08,3.08,0,0,0,3,3.19h5.53c4.94,0,7.42-.62,7.42-7s-2.47-7-7.42-7Z" style="fill:#9f0900"/><path d="M539.25,381.09a3.08,3.08,0,0,1,3.19,3V430c0,6.8-1.44,25-25.85,25-21.94,0-25.34-14.73-25.75-22.66a2.7,2.7,0,0,1,2.27-2.88l11.43-2.58a3.45,3.45,0,0,1,4.12,3.19c.51,4.53,2.37,7.21,7.93,7.21,7.62,0,8.14-4.84,8.14-12.77V384.28a3.08,3.08,0,0,1,3-3.19h11.55Z" style="fill:#f3e0b5"/><path d="M564.45,381.09q3.09,0,3.09,3.09v40.37c0,7.93.52,12.77,8.14,12.77s8.14-4.84,8.14-12.77V384.18a2.77,2.77,0,0,1,3.09-3.09h11.54q3.09,0,3.09,3.09V430c0,6.8-1.44,25-25.85,25s-25.85-18.23-25.85-25V384.18a2.77,2.77,0,0,1,3.09-3.09Z" style="fill:#f3e0b5"/><path d="M646.32,406.63c-2.06.41-3.09-.51-3.4-2.58-.72-4.22-4.12-6.9-9-6.9-4,0-6.49,2.37-6.08,4.74,1.44,8,34,7.83,34,31.52,0,3.09-3.5,21.32-27.91,21.32-21.63,0-26.26-14.21-26.78-22.25a3,3,0,0,1,2.55-3.39h.13l11.64-2.58c2.06-.41,3.19.52,3.4,2.68.41,4.94,4.22,7.83,9.06,7.83,5,0,8.75-3,8.14-5.77-2-8.75-33-6.8-33-30.49-.1-3.09,1.75-21.32,24.82-21.32,21.22,0,26.16,13.8,26.78,21.22a3,3,0,0,1-2.55,3.39H658Z" style="fill:#f3e0b5"/><path d="M685.88,401.89q0-3.09-3.09-3.09H668.37a2.82,2.82,0,0,1-3.09-3.09V384.18a2.77,2.77,0,0,1,3.09-3.09H721.1q3.09,0,3.09,3.09v11.54a2.77,2.77,0,0,1-3.09,3.09H706.68a2.77,2.77,0,0,0-3.09,3.09v48.2a2.77,2.77,0,0,1-3.09,3.09H689a2.82,2.82,0,0,1-3.09-3.09Z" style="fill:#f3e0b5"/><path d="M744.17,381.09q3.09,0,3.09,3.09V450.1a2.77,2.77,0,0,1-3.09,3.09H732.84a2.82,2.82,0,0,1-3.09-3.09V384.18a2.77,2.77,0,0,1,3.09-3.09Z" style="fill:#f3e0b5"/><path d="M754.4,404.26c0-6.8,1.44-25,25.85-25,21.94,0,25.34,14.73,25.75,22.66a2.7,2.7,0,0,1-2.27,2.88l-11.43,2.58a3.45,3.45,0,0,1-4.12-3.19c-.51-4.53-2.37-7.21-7.93-7.21-7.62,0-8.14,4.84-8.14,12.77v14.83c0,7.93.51,12.77,8.14,12.77,5.66,0,7.21-2.68,7.83-7.42.31-2.16,2-3.5,4-3l11.64,2.58a2.74,2.74,0,0,1,2.27,3c-.41,7.83-3.81,22.56-25.75,22.56-24.41,0-25.85-18.23-25.85-25Z" style="fill:#f3e0b5"/><path d="M858.28,381.09q3.09,0,3.09,3.09v11.54a2.77,2.77,0,0,1-3.09,3.09H833.35a2.77,2.77,0,0,0-3.09,3.09v3.3a2.82,2.82,0,0,0,3.09,3.09h16q3.09,0,3.09,3.09V422.9a2.77,2.77,0,0,1-3.09,3.09h-16a2.77,2.77,0,0,0-3.09,3.09v3.3a2.82,2.82,0,0,0,3.09,3.09h24.93q3.09,0,3.09,3.09V450.1q0,3.09-3.09,3.09H815a2.82,2.82,0,0,1-3.09-3.09V384.18a2.77,2.77,0,0,1,3.09-3.09Z" style="fill:#f3e0b5"/></svg>